<?xml version="1.0" encoding="utf-8"?>
<!DOCTYPE svg PUBLIC "-//W3C//DTD SVG 1.1//EN" "http://www.w3.org/Graphics/SVG/1.1/DTD/svg11.dtd">
<svg version="1.1" xmlns="http://www.w3.org/2000/svg" xmlns:xlink="http://www.w3.org/1999/xlink" x="0px" y="0px" width="256px" height="256px" viewBox="0 0 256 256" enable-background="new 0 0 256 256" xml:space="preserve">
	<g id="Layer_1">
		<linearGradient id="SVGID_1_" gradientUnits="userSpaceOnUse" x1="128.0005" y1="256" x2="128.0005" y2="4.882813e-004">
			<stop  offset="0" style="stop-color:#000000"/>
			<stop  offset="0.9839" style="stop-color:#323232"/>
		</linearGradient>
		<circle fill="url(#SVGID_1_)" cx="128" cy="128" r="128"/>
		<g>
			<path fill="none" stroke="#5CC6CE" stroke-width="28" stroke-miterlimit="10" d="M174.111,120.496c-0.279,37.169-29.343,67.085-64.908,66.818c-35.572-0.267-64.181-30.619-63.901-67.789c0.28-37.163,29.342-67.08,64.914-66.812C145.781,52.98,174.39,83.333,174.111,120.496z"/>
			<path fill="#5CC6CD" d="M186.294,183.44c-4.084-13.902-20.651-70.282-20.651-70.282c-0.827-2.821,3.213-6.492,9.024-8.198l5.209-1.529c5.813-1.706,11.193-0.803,12.022,2.021l26.969,91.796C219.694,200.069,190.376,197.347,186.294,183.44z"/>
		</g>
	</g>
</svg>